<?xml version="1.0" ?><!-- Created with Inkscape (http://www.inkscape.org/) --><svg height="450" id="svg2" inkscape:output_extension="org.inkscape.output.svg.inkscape" inkscape:version="0.45.1" sodipodi:docbase="C:\Documents and Settings\user\Pulpit" sodipodi:docname="Rasterize_aa.svg" sodipodi:version="0.32" version="1.0" width="450" xmlns="http://www.w3.org/2000/svg" xmlns:cc="http://web.resource.org/cc/" xmlns:dc="http://purl.org/dc/elements/1.1/" xmlns:inkscape="http://www.inkscape.org/namespaces/inkscape" xmlns:rdf="http://www.w3.org/1999/02/22-rdf-syntax-ns#" xmlns:sodipodi="http://sodipodi.sourceforge.net/DTD/sodipodi-0.dtd" xmlns:svg="http://www.w3.org/2000/svg">
  <defs id="defs4"/>
  <sodipodi:namedview bordercolor="#666" borderopacity="1.0" gridtolerance="10000" height="450px" id="base" inkscape:current-layer="layer1" inkscape:cx="224.99999" inkscape:cy="225" inkscape:document-units="px" inkscape:grid-bbox="true" inkscape:grid-points="true" inkscape:pageopacity="0.0" inkscape:pageshadow="2" inkscape:window-height="719" inkscape:window-width="1024" inkscape:window-x="-4" inkscape:window-y="-4" inkscape:zoom="1" pagecolor="#fff" showgrid="false" width="450px"/>
  <metadata id="metadata7">
    <rdf:RDF>
      <cc:Work rdf:about="">
        <dc:format>image/svg+xml</dc:format>
        <dc:type rdf:resource="http://purl.org/dc/dcmitype/StillImage"/>
      </cc:Work>
    </rdf:RDF>
  </metadata>
  <g id="layer1" inkscape:groupmode="layer" inkscape:label="Warstwa 1">
    <rect height="30" id="rect2160" style="stroke:#aaa;stroke-linecap:round;stroke-width:0.5;fill:#fff" width="30" x="0" y="420"/>
    <rect height="30" id="rect3134" style="stroke:#aaa;stroke-linecap:round;stroke-width:0.5;fill:#fff" width="30" x="30" y="420"/>
    <rect height="30" id="rect3136" style="stroke:#aaa;stroke-linecap:round;stroke-width:0.5;fill:#fff" width="30" x="60" y="420"/>
    <rect height="30" id="rect3138" style="stroke:#aaa;stroke-linecap:round;stroke-width:0.5;fill:#fff" width="30" x="90" y="420"/>
    <rect height="30" id="rect3140" style="stroke:#aaa;stroke-linecap:round;stroke-width:0.5;fill:#fff" width="30" x="120" y="420"/>
    <rect height="30" id="rect3142" style="stroke:#aaa;stroke-linecap:round;stroke-width:0.5;fill:#fff" width="30" x="150" y="420"/>
    <rect height="30" id="rect3144" style="stroke:#aaa;stroke-linecap:round;stroke-width:0.5;fill:#fff" width="30" x="180" y="420"/>
    <rect height="30" id="rect3146" style="stroke:#aaa;stroke-linecap:round;stroke-width:0.5;fill:#fff" width="30" x="210" y="420"/>
    <rect height="30" id="rect3148" style="stroke:#aaa;stroke-linecap:round;stroke-width:0.5;fill:#fff" width="30" x="240" y="420"/>
    <rect height="30" id="rect3150" style="stroke:#aaa;stroke-linecap:round;stroke-width:0.5;fill:#fff" width="30" x="270" y="420"/>
    <rect height="30" id="rect3152" style="stroke:#aaa;stroke-linecap:round;stroke-width:0.5;fill:#fff" width="30" x="300" y="420"/>
    <rect height="30" id="rect3154" style="stroke:#aaa;stroke-linecap:round;stroke-width:0.5;fill:#fff" width="30" x="330" y="420"/>
    <rect height="30" id="rect3156" style="stroke:#aaa;stroke-linecap:round;stroke-width:0.5;fill:#fff" width="30" x="360" y="420"/>
    <rect height="30" id="rect3158" style="stroke:#aaa;stroke-linecap:round;stroke-width:0.5;fill:#fff" width="30" x="390" y="420"/>
    <rect height="30" id="rect3160" style="stroke:#aaa;stroke-linecap:round;stroke-width:0.5;fill:#fff" width="30" x="420" y="420"/>
    <rect height="30" id="rect3162" style="stroke:#aaa;stroke-linecap:round;stroke-width:0.5;fill:#fff" width="30" x="0" y="390"/>
    <rect height="30" id="rect3164" style="stroke:#aaa;stroke-linecap:round;stroke-width:0.5;fill:#fff" width="30" x="30.000008" y="390"/>
    <rect height="30" id="rect3166" style="stroke:#aaa;stroke-linecap:round;stroke-width:0.5;fill:#fff" width="30" x="60" y="390"/>
    <rect height="30" id="rect3168" style="stroke:#aaa;stroke-linecap:round;stroke-width:0.5;fill:#fff" width="30" x="90" y="390"/>
    <rect height="30" id="rect3170" style="stroke:#aaa;stroke-linecap:round;stroke-width:0.5;fill:#fff" width="30" x="120" y="390"/>
    <rect height="30" id="rect3172" style="stroke:#aaa;stroke-linecap:round;stroke-width:0.5;fill:#fff" width="30" x="150" y="390"/>
    <rect height="30" id="rect3174" style="stroke:#aaa;stroke-linecap:round;stroke-width:0.5;fill:#fff" width="30" x="180" y="390"/>
    <rect height="30" id="rect3176" style="stroke:#aaa;stroke-linecap:round;stroke-width:0.5;fill:#fff" width="30" x="210" y="390"/>
    <rect height="30" id="rect3178" style="stroke:#aaa;stroke-linecap:round;stroke-width:0.5;fill:#fff" width="30" x="240" y="390"/>
    <rect height="30" id="rect3180" style="stroke:#aaa;stroke-linecap:round;stroke-width:0.5;fill:#fff" width="30" x="270" y="390"/>
    <rect height="30" id="rect3182" style="stroke:#aaa;stroke-linecap:round;stroke-width:0.5;fill:#fff" width="30" x="300" y="390"/>
    <rect height="30" id="rect3184" style="stroke:#aaa;stroke-linecap:round;stroke-width:0.5;fill:#ececec" width="30" x="330" y="390"/>
    <rect height="30" id="rect3186" style="stroke:#aaa;stroke-linecap:round;stroke-width:0.5;fill:#e6e6e6" width="30" x="360" y="390"/>
    <rect height="30" id="rect3188" style="stroke:#aaa;stroke-linecap:round;stroke-width:0.5;fill:#fff" width="30" x="390" y="390"/>
    <rect height="30" id="rect3190" style="stroke:#aaa;stroke-linecap:round;stroke-width:0.5;fill:#fff" width="30" x="420" y="390"/>
    <rect height="30" id="rect3192" style="stroke:#aaa;stroke-linecap:round;stroke-width:0.5;fill:#fff" width="30" x="0" y="360"/>
    <rect height="30" id="rect3194" style="stroke:#aaa;stroke-linecap:round;stroke-width:0.5;fill:#fff" width="30" x="30" y="360"/>
    <rect height="30" id="rect3196" style="stroke:#aaa;stroke-linecap:round;stroke-width:0.5;fill:#fff" width="30" x="60" y="360"/>
    <rect height="30" id="rect3198" style="stroke:#aaa;stroke-linecap:round;stroke-width:0.5;fill:#fff" width="30" x="90" y="360"/>
    <rect height="30" id="rect3200" style="stroke:#aaa;stroke-linecap:round;stroke-width:0.5;fill:#fff" width="30" x="120" y="360"/>
    <rect height="30" id="rect3202" style="stroke:#aaa;stroke-linecap:round;stroke-width:0.5;fill:#fff" width="30" x="150" y="360"/>
    <rect height="30" id="rect3204" style="stroke:#aaa;stroke-linecap:round;stroke-width:0.5;fill:#fff" width="30" x="180" y="360"/>
    <rect height="30" id="rect3206" style="stroke:#aaa;stroke-linecap:round;stroke-width:0.5;fill:#fff" width="30" x="210" y="360"/>
    <rect height="30" id="rect3208" style="stroke:#aaa;stroke-linecap:round;stroke-width:0.5;fill:#fff" width="30" x="240" y="360"/>
    <rect height="30" id="rect3210" style="stroke:#aaa;stroke-linecap:round;stroke-width:0.5;fill:#e6e6e6" width="30" x="270" y="360"/>
    <rect height="30" id="rect3212" style="stroke:#aaa;stroke-linecap:round;stroke-width:0.5;fill:#666" width="30" x="300" y="360"/>
    <rect height="30" id="rect3214" style="stroke:#aaa;stroke-linecap:round;stroke-width:0.5;fill:#4d4d4d" width="30" x="330" y="360"/>
    <rect height="30" id="rect3216" style="stroke:#aaa;stroke-linecap:round;stroke-width:0.5;fill:#e6e6e6" width="30" x="360" y="360"/>
    <rect height="30" id="rect3218" style="stroke:#aaa;stroke-linecap:round;stroke-width:0.5;fill:#fff" width="30" x="390" y="360"/>
    <rect height="30" id="rect3220" style="stroke:#aaa;stroke-linecap:round;stroke-width:0.5;fill:#fff" width="30" x="420" y="360"/>
    <rect height="30" id="rect3222" style="stroke:#aaa;stroke-linecap:round;stroke-width:0.5;fill:#fff" width="30" x="-7.6293945e-006" y="330"/>
    <rect height="30" id="rect3224" style="stroke:#aaa;stroke-linecap:round;stroke-width:0.5;fill:#fff" width="30" x="29.999992" y="330"/>
    <rect height="30" id="rect3226" style="stroke:#aaa;stroke-linecap:round;stroke-width:0.5;fill:#fff" width="30" x="59.999992" y="330"/>
    <rect height="30" id="rect3228" style="stroke:#aaa;stroke-linecap:round;stroke-width:0.5;fill:#fff" width="30" x="89.999992" y="330"/>
    <rect height="30" id="rect3230" style="stroke:#aaa;stroke-linecap:round;stroke-width:0.5;fill:#fff" width="30" x="119.99999" y="330"/>
    <rect height="30" id="rect3232" style="stroke:#aaa;stroke-linecap:round;stroke-width:0.5;fill:#fff" width="30" x="150" y="330"/>
    <rect height="30" id="rect3234" style="stroke:#aaa;stroke-linecap:round;stroke-width:0.5;fill:#fff" width="30" x="180" y="330"/>
    <rect height="30" id="rect3236" style="stroke:#aaa;stroke-linecap:round;stroke-width:0.5;fill:#e6e6e6" width="30" x="210" y="330"/>
    <rect height="30" id="rect3238" style="stroke:#aaa;stroke-linecap:round;stroke-width:0.5;fill:#999999" width="30" x="240" y="330"/>
    <rect height="30" id="rect3240" style="stroke:#aaa;stroke-linecap:round;stroke-width:0.5;fill:#4d4d4d" width="30" x="270" y="330"/>
    <rect height="30" id="rect3242" style="stroke:#aaa;stroke-linecap:round;stroke-width:0.5;fill:#000" width="30" x="300" y="330"/>
    <rect height="30" id="rect3244" style="stroke:#aaa;stroke-linecap:round;stroke-width:0.5;fill:#666" width="30" x="330" y="330"/>
    <rect height="30" id="rect3246" style="stroke:#aaa;stroke-linecap:round;stroke-width:0.5;fill:#fff" width="30" x="360" y="330"/>
    <rect height="30" id="rect3248" style="stroke:#aaa;stroke-linecap:round;stroke-width:0.5;fill:#fff" width="30" x="390" y="330"/>
    <rect height="30" id="rect3250" style="stroke:#aaa;stroke-linecap:round;stroke-width:0.5;fill:#fff" width="30" x="420" y="330"/>
    <rect height="30" id="rect3252" style="stroke:#aaa;stroke-linecap:round;stroke-width:0.5;fill:#fff" width="30" x="-1.1444092e-005" y="300"/>
    <rect height="30" id="rect3254" style="stroke:#aaa;stroke-linecap:round;stroke-width:0.5;fill:#fff" width="30" x="29.999989" y="300"/>
    <rect height="30" id="rect3256" style="stroke:#aaa;stroke-linecap:round;stroke-width:0.5;fill:#fff" width="30" x="59.999989" y="300"/>
    <rect height="30" id="rect3258" style="stroke:#aaa;stroke-linecap:round;stroke-width:0.5;fill:#fff" width="30" x="89.999985" y="300"/>
    <rect height="30" id="rect3260" style="stroke:#aaa;stroke-linecap:round;stroke-width:0.5;fill:#fff" width="30" x="119.99998" y="300"/>
    <rect height="30" id="rect3262" style="stroke:#aaa;stroke-linecap:round;stroke-width:0.5;fill:#ececec" width="30" x="149.99998" y="300"/>
    <rect height="30" id="rect3264" style="stroke:#aaa;stroke-linecap:round;stroke-width:0.5;fill:#b3b3b3" width="30" x="179.99998" y="300"/>
    <rect height="30" id="rect3266" style="stroke:#aaa;stroke-linecap:round;stroke-width:0.5;fill:#4d4d4d" width="30" x="209.99998" y="300"/>
    <rect height="30" id="rect3268" style="stroke:#aaa;stroke-linecap:round;stroke-width:0.5;fill:#000" width="30" x="239.99998" y="300"/>
    <rect height="30" id="rect3270" style="stroke:#aaa;stroke-linecap:round;stroke-width:0.5;fill:#000" width="30" x="270" y="300"/>
    <rect height="30" id="rect3272" style="stroke:#aaa;stroke-linecap:round;stroke-width:0.5;fill:#000" width="30" x="300" y="300"/>
    <rect height="30" id="rect3274" style="stroke:#aaa;stroke-linecap:round;stroke-width:0.5;fill:#b3b3b3" width="30" x="330" y="300"/>
    <rect height="30" id="rect3276" style="stroke:#aaa;stroke-linecap:round;stroke-width:0.5;fill:#fff" width="30" x="360" y="300"/>
    <rect height="30" id="rect3278" style="stroke:#aaa;stroke-linecap:round;stroke-width:0.5;fill:#fff" width="30" x="390" y="300"/>
    <rect height="30" id="rect3280" style="stroke:#aaa;stroke-linecap:round;stroke-width:0.5;fill:#fff" width="30" x="420" y="300"/>
    <rect height="30" id="rect3282" style="stroke:#aaa;stroke-linecap:round;stroke-width:0.5;fill:#fff" width="30" x="-1.1444092e-005" y="270"/>
    <rect height="30" id="rect3284" style="stroke:#aaa;stroke-linecap:round;stroke-width:0.5;fill:#fff" width="30" x="29.999996" y="270"/>
    <rect height="30" id="rect3286" style="stroke:#aaa;stroke-linecap:round;stroke-width:0.5;fill:#fff" width="30" x="59.999989" y="270"/>
    <rect height="30" id="rect3288" style="stroke:#aaa;stroke-linecap:round;stroke-width:0.5;fill:#e6e6e6" width="30" x="89.999985" y="270"/>
    <rect height="30" id="rect3290" style="stroke:#aaa;stroke-linecap:round;stroke-width:0.5;fill:#999999" width="30" x="119.99998" y="270"/>
    <rect height="30" id="rect3292" style="stroke:#aaa;stroke-linecap:round;stroke-width:0.5;fill:#4d4d4d" width="30" x="149.99998" y="270"/>
    <rect height="30" id="rect3294" style="stroke:#aaa;stroke-linecap:round;stroke-width:0.5;fill:#000" width="30" x="179.99998" y="270"/>
    <rect height="30" id="rect3296" style="stroke:#aaa;stroke-linecap:round;stroke-width:0.5;fill:#000" width="30" x="209.99998" y="270"/>
    <rect height="30" id="rect3298" style="stroke:#aaa;stroke-linecap:round;stroke-width:0.5;fill:#000" width="30" x="239.99998" y="270"/>
    <rect height="30" id="rect3300" style="stroke:#aaa;stroke-linecap:round;stroke-width:0.5;fill:#000" width="30" x="270" y="270"/>
    <rect height="30" id="rect3302" style="stroke:#aaa;stroke-linecap:round;stroke-width:0.5;fill:#333" width="30" x="300" y="270"/>
    <rect height="30" id="rect3304" style="stroke:#aaa;stroke-linecap:round;stroke-width:0.5;fill:#ececec" width="30" x="330" y="270"/>
    <rect height="30" id="rect3306" style="stroke:#aaa;stroke-linecap:round;stroke-width:0.5;fill:#fff" width="30" x="360" y="270"/>
    <rect height="30" id="rect3308" style="stroke:#aaa;stroke-linecap:round;stroke-width:0.5;fill:#fff" width="30" x="390" y="270"/>
    <rect height="30" id="rect3310" style="stroke:#aaa;stroke-linecap:round;stroke-width:0.5;fill:#fff" width="30" x="420" y="270"/>
    <rect height="30" id="rect3312" style="stroke:#aaa;stroke-linecap:round;stroke-width:0.5;fill:#fff" width="30" x="-1.1444092e-005" y="240"/>
    <rect height="30" id="rect3314" style="stroke:#aaa;stroke-linecap:round;stroke-width:0.5;fill:#fff" width="30" x="29.999989" y="240"/>
    <rect height="30" id="rect3316" style="stroke:#aaa;stroke-linecap:round;stroke-width:0.5;fill:#b3b3b3" width="30" x="59.999989" y="240"/>
    <rect height="30" id="rect3318" style="stroke:#aaa;stroke-linecap:round;stroke-width:0.5;fill:#4d4d4d" width="30" x="89.999985" y="240"/>
    <rect height="30" id="rect3320" style="stroke:#aaa;stroke-linecap:round;stroke-width:0.5;fill:#000" width="30" x="119.99998" y="240"/>
    <rect height="30" id="rect3322" style="stroke:#aaa;stroke-linecap:round;stroke-width:0.5;fill:#000" width="30" x="149.99998" y="240"/>
    <rect height="30" id="rect3324" style="stroke:#aaa;stroke-linecap:round;stroke-width:0.5;fill:#000" width="30" x="179.99998" y="240"/>
    <rect height="30" id="rect3326" style="stroke:#aaa;stroke-linecap:round;stroke-width:0.5;fill:#000" width="30" x="209.99998" y="240"/>
    <rect height="30" id="rect3328" style="stroke:#aaa;stroke-linecap:round;stroke-width:0.5;fill:#000" width="30" x="239.99998" y="240"/>
    <rect height="30" id="rect3330" style="stroke:#aaa;stroke-linecap:round;stroke-width:0.5;fill:#000" width="30" x="270" y="240"/>
    <rect height="30" id="rect3332" style="stroke:#aaa;stroke-linecap:round;stroke-width:0.5;fill:#b3b3b3" width="30" x="300" y="240"/>
    <rect height="30" id="rect3334" style="stroke:#aaa;stroke-linecap:round;stroke-width:0.5;fill:#fff" width="30" x="330" y="240"/>
    <rect height="30" id="rect3336" style="stroke:#aaa;stroke-linecap:round;stroke-width:0.5;fill:#fff" width="30" x="360" y="240"/>
    <rect height="30" id="rect3338" style="stroke:#aaa;stroke-linecap:round;stroke-width:0.5;fill:#fff" width="30" x="390" y="240"/>
    <rect height="30" id="rect3340" style="stroke:#aaa;stroke-linecap:round;stroke-width:0.5;fill:#fff" width="30" x="420" y="240"/>
    <rect height="30" id="rect3342" style="stroke:#aaa;stroke-linecap:round;stroke-width:0.5;fill:#fff" width="30" x="-1.9073486e-005" y="210"/>
    <rect height="30" id="rect3344" style="stroke:#aaa;stroke-linecap:round;stroke-width:0.5;fill:#fff" width="30" x="29.999981" y="210"/>
    <rect height="30" id="rect3346" style="stroke:#aaa;stroke-linecap:round;stroke-width:0.5;fill:#fff" width="30" x="59.999981" y="210"/>
    <rect height="30" id="rect3348" style="stroke:#aaa;stroke-linecap:round;stroke-width:0.5;fill:#666" width="30" x="89.999985" y="210"/>
    <rect height="30" id="rect3350" style="stroke:#aaa;stroke-linecap:round;stroke-width:0.5;fill:#000" width="30" x="119.99998" y="210"/>
    <rect height="30" id="rect3352" style="stroke:#aaa;stroke-linecap:round;stroke-width:0.5;fill:#000" width="30" x="149.99998" y="210"/>
    <rect height="30" id="rect3354" style="stroke:#aaa;stroke-linecap:round;stroke-width:0.5;fill:#000" width="30" x="179.99998" y="210"/>
    <rect height="30" id="rect3356" style="stroke:#aaa;stroke-linecap:round;stroke-width:0.5;fill:#000" width="30" x="209.99998" y="210"/>
    <rect height="30" id="rect3358" style="stroke:#aaa;stroke-linecap:round;stroke-width:0.5;fill:#000" width="30" x="239.99998" y="210"/>
    <rect height="30" id="rect3360" style="stroke:#aaa;stroke-linecap:round;stroke-width:0.5;fill:#4d4d4d" width="30" x="270" y="210"/>
    <rect height="30" id="rect3362" style="stroke:#aaa;stroke-linecap:round;stroke-width:0.5;fill:#e6e6e6" width="30" x="300" y="210"/>
    <rect height="30" id="rect3364" style="stroke:#aaa;stroke-linecap:round;stroke-width:0.5;fill:#fff" width="30" x="330" y="210"/>
    <rect height="30" id="rect3366" style="stroke:#aaa;stroke-linecap:round;stroke-width:0.5;fill:#fff" width="30" x="360" y="210"/>
    <rect height="30" id="rect3368" style="stroke:#aaa;stroke-linecap:round;stroke-width:0.5;fill:#fff" width="30" x="390" y="210"/>
    <rect height="30" id="rect3370" style="stroke:#aaa;stroke-linecap:round;stroke-width:0.5;fill:#fff" width="30" x="420" y="210"/>
    <rect height="30" id="rect3372" style="stroke:#aaa;stroke-linecap:round;stroke-width:0.5;fill:#fff" width="30" x="-7.6293945e-006" y="180"/>
    <rect height="30" id="rect3374" style="stroke:#aaa;stroke-linecap:round;stroke-width:0.5;fill:#fff" width="30" x="29.999994" y="180"/>
    <rect height="30" id="rect3376" style="stroke:#aaa;stroke-linecap:round;stroke-width:0.5;fill:#fff" width="30" x="59.999992" y="180"/>
    <rect height="30" id="rect3378" style="stroke:#aaa;stroke-linecap:round;stroke-width:0.5;fill:#cccccc" width="30" x="89.999992" y="180"/>
    <rect height="30" id="rect3380" style="stroke:#aaa;stroke-linecap:round;stroke-width:0.5;fill:#4d4d4d" width="30" x="119.99999" y="180"/>
    <rect height="30" id="rect3382" style="stroke:#aaa;stroke-linecap:round;stroke-width:0.5;fill:#000" width="30" x="150" y="180"/>
    <rect height="30" id="rect3384" style="stroke:#aaa;stroke-linecap:round;stroke-width:0.5;fill:#000" width="30" x="180" y="180"/>
    <rect height="30" id="rect3386" style="stroke:#aaa;stroke-linecap:round;stroke-width:0.5;fill:#000" width="30" x="210" y="180"/>
    <rect height="30" id="rect3388" style="stroke:#aaa;stroke-linecap:round;stroke-width:0.5;fill:#000" width="30" x="240" y="180"/>
    <rect height="30" id="rect3390" style="stroke:#aaa;stroke-linecap:round;stroke-width:0.5;fill:#666" width="30" x="270" y="180"/>
    <rect height="30" id="rect3392" style="stroke:#aaa;stroke-linecap:round;stroke-width:0.5;fill:#fff" width="30" x="300" y="180"/>
    <rect height="30" id="rect3394" style="stroke:#aaa;stroke-linecap:round;stroke-width:0.5;fill:#fff" width="30" x="330" y="180"/>
    <rect height="30" id="rect3396" style="stroke:#aaa;stroke-linecap:round;stroke-width:0.5;fill:#fff" width="30" x="360" y="180"/>
    <rect height="30" id="rect3398" style="stroke:#aaa;stroke-linecap:round;stroke-width:0.5;fill:#fff" width="30" x="390" y="180"/>
    <rect height="30" id="rect3400" style="stroke:#aaa;stroke-linecap:round;stroke-width:0.5;fill:#fff" width="30" x="420" y="180"/>
    <rect height="30" id="rect3402" style="stroke:#aaa;stroke-linecap:round;stroke-width:0.5;fill:#fff" width="30" x="-7.6293945e-006" y="150"/>
    <rect height="30" id="rect3404" style="stroke:#aaa;stroke-linecap:round;stroke-width:0.5;fill:#fff" width="30" x="30.000002" y="150"/>
    <rect height="30" id="rect3406" style="stroke:#aaa;stroke-linecap:round;stroke-width:0.5;fill:#fff" width="30" x="59.999992" y="150"/>
    <rect height="30" id="rect3408" style="stroke:#aaa;stroke-linecap:round;stroke-width:0.5;fill:#fff" width="30" x="89.999992" y="150"/>
    <rect height="30" id="rect3410" style="stroke:#aaa;stroke-linecap:round;stroke-width:0.5;fill:#b3b3b3" width="30" x="119.99999" y="150"/>
    <rect height="30" id="rect3412" style="stroke:#aaa;stroke-linecap:round;stroke-width:0.5;fill:#000" width="30" x="150" y="150"/>
    <rect height="30" id="rect3414" style="stroke:#aaa;stroke-linecap:round;stroke-width:0.5;fill:#000" width="30" x="180" y="150"/>
    <rect height="30" id="rect3416" style="stroke:#aaa;stroke-linecap:round;stroke-width:0.5;fill:#000" width="30" x="210" y="150"/>
    <rect height="30" id="rect3418" style="stroke:#aaa;stroke-linecap:round;stroke-width:0.5;fill:#333" width="30" x="240" y="150"/>
    <rect height="30" id="rect3420" style="stroke:#aaa;stroke-linecap:round;stroke-width:0.5;fill:#b3b3b3" width="30" x="270" y="150"/>
    <rect height="30" id="rect3422" style="stroke:#aaa;stroke-linecap:round;stroke-width:0.5;fill:#fff" width="30" x="300" y="150"/>
    <rect height="30" id="rect3424" style="stroke:#aaa;stroke-linecap:round;stroke-width:0.5;fill:#fff" width="30" x="330" y="150"/>
    <rect height="30" id="rect3426" style="stroke:#aaa;stroke-linecap:round;stroke-width:0.5;fill:#fff" width="30" x="360" y="150"/>
    <rect height="30" id="rect3428" style="stroke:#aaa;stroke-linecap:round;stroke-width:0.5;fill:#fff" width="30" x="390" y="150"/>
    <rect height="30" id="rect3430" style="stroke:#aaa;stroke-linecap:round;stroke-width:0.5;fill:#fff" width="30" x="420" y="150"/>
    <rect height="30" id="rect3432" style="stroke:#aaa;stroke-linecap:round;stroke-width:0.5;fill:#fff" width="30" x="-7.6293945e-006" y="120"/>
    <rect height="30" id="rect3434" style="stroke:#aaa;stroke-linecap:round;stroke-width:0.5;fill:#fff" width="30" x="29.999994" y="120"/>
    <rect height="30" id="rect3436" style="stroke:#aaa;stroke-linecap:round;stroke-width:0.5;fill:#fff" width="30" x="59.999992" y="120"/>
    <rect height="30" id="rect3438" style="stroke:#aaa;stroke-linecap:round;stroke-width:0.5;fill:#fff" width="30" x="89.999992" y="120"/>
    <rect height="30" id="rect3440" style="stroke:#aaa;stroke-linecap:round;stroke-width:0.5;fill:#fff" width="30" x="119.99999" y="120"/>
    <rect height="30" id="rect3442" style="stroke:#aaa;stroke-linecap:round;stroke-width:0.5;fill:#999999" width="30" x="150" y="120"/>
    <rect height="30" id="rect3444" style="stroke:#aaa;stroke-linecap:round;stroke-width:0.5;fill:#000" width="30" x="180" y="120"/>
    <rect height="30" id="rect3446" style="stroke:#aaa;stroke-linecap:round;stroke-width:0.5;fill:#000" width="30" x="210" y="120"/>
    <rect height="30" id="rect3448" style="stroke:#aaa;stroke-linecap:round;stroke-width:0.5;fill:#808080" width="30" x="240" y="120"/>
    <rect height="30" id="rect3450" style="stroke:#aaa;stroke-linecap:round;stroke-width:0.5;fill:#fff" width="30" x="270" y="120"/>
    <rect height="30" id="rect3452" style="stroke:#aaa;stroke-linecap:round;stroke-width:0.5;fill:#fff" width="30" x="300" y="120"/>
    <rect height="30" id="rect3454" style="stroke:#aaa;stroke-linecap:round;stroke-width:0.5;fill:#fff" width="30" x="330" y="120"/>
    <rect height="30" id="rect3456" style="stroke:#aaa;stroke-linecap:round;stroke-width:0.5;fill:#fff" width="30" x="360" y="120"/>
    <rect height="30" id="rect3458" style="stroke:#aaa;stroke-linecap:round;stroke-width:0.5;fill:#fff" width="30" x="390" y="120"/>
    <rect height="30" id="rect3460" style="stroke:#aaa;stroke-linecap:round;stroke-width:0.5;fill:#fff" width="30" x="420" y="120"/>
    <rect height="30" id="rect3462" style="stroke:#aaa;stroke-linecap:round;stroke-width:0.5;fill:#fff" width="30" x="-1.5258789e-005" y="90"/>
    <rect height="30" id="rect3464" style="stroke:#aaa;stroke-linecap:round;stroke-width:0.5;fill:#fff" width="30" x="29.999987" y="90"/>
    <rect height="30" id="rect3466" style="stroke:#aaa;stroke-linecap:round;stroke-width:0.5;fill:#fff" width="30" x="59.999985" y="90"/>
    <rect height="30" id="rect3468" style="stroke:#aaa;stroke-linecap:round;stroke-width:0.5;fill:#fff" width="30" x="89.999985" y="90"/>
    <rect height="30" id="rect3470" style="stroke:#aaa;stroke-linecap:round;stroke-width:0.5;fill:#fff" width="30" x="119.99998" y="90"/>
    <rect height="30" id="rect3472" style="stroke:#aaa;stroke-linecap:round;stroke-width:0.5;fill:#ececec" width="30" x="150" y="90"/>
    <rect height="30" id="rect3474" style="stroke:#aaa;stroke-linecap:round;stroke-width:0.5;fill:#4d4d4d" width="30" x="180" y="90"/>
    <rect height="30" id="rect3476" style="stroke:#aaa;stroke-linecap:round;stroke-width:0.5;fill:#000" width="30" x="210" y="90"/>
    <rect height="30" id="rect3478" style="stroke:#aaa;stroke-linecap:round;stroke-width:0.5;fill:#cccccc" width="30" x="240" y="90"/>
    <rect height="30" id="rect3480" style="stroke:#aaa;stroke-linecap:round;stroke-width:0.5;fill:#fff" width="30" x="270" y="90"/>
    <rect height="30" id="rect3482" style="stroke:#aaa;stroke-linecap:round;stroke-width:0.5;fill:#fff" width="30" x="300" y="90"/>
    <rect height="30" id="rect3484" style="stroke:#aaa;stroke-linecap:round;stroke-width:0.5;fill:#fff" width="30" x="330" y="90"/>
    <rect height="30" id="rect3486" style="stroke:#aaa;stroke-linecap:round;stroke-width:0.5;fill:#fff" width="30" x="360" y="90"/>
    <rect height="30" id="rect3488" style="stroke:#aaa;stroke-linecap:round;stroke-width:0.5;fill:#fff" width="30" x="390" y="90"/>
    <rect height="30" id="rect3490" style="stroke:#aaa;stroke-linecap:round;stroke-width:0.5;fill:#fff" width="30" x="420" y="90"/>
    <rect height="30" id="rect3492" style="stroke:#aaa;stroke-linecap:round;stroke-width:0.5;fill:#fff" width="30" x="-7.6293945e-006" y="60"/>
    <rect height="30" id="rect3494" style="stroke:#aaa;stroke-linecap:round;stroke-width:0.5;fill:#fff" width="30" x="29.999992" y="60"/>
    <rect height="30" id="rect3496" style="stroke:#aaa;stroke-linecap:round;stroke-width:0.5;fill:#fff" width="30" x="59.999992" y="60"/>
    <rect height="30" id="rect3498" style="stroke:#aaa;stroke-linecap:round;stroke-width:0.5;fill:#fff" width="30" x="89.999985" y="60"/>
    <rect height="30" id="rect3500" style="stroke:#aaa;stroke-linecap:round;stroke-width:0.5;fill:#fff" width="30" x="119.99999" y="60"/>
    <rect height="30" id="rect3502" style="stroke:#aaa;stroke-linecap:round;stroke-width:0.5;fill:#fff" width="30" x="149.99998" y="60"/>
    <rect height="30" id="rect3504" style="stroke:#aaa;stroke-linecap:round;stroke-width:0.5;fill:#b3b3b3" width="30" x="179.99998" y="60"/>
    <rect height="30" id="rect3506" style="stroke:#aaa;stroke-linecap:round;stroke-width:0.5;fill:#333" width="30" x="210" y="60"/>
    <rect height="30" id="rect3508" style="stroke:#aaa;stroke-linecap:round;stroke-width:0.5;fill:#ececec" width="30" x="240" y="60"/>
    <rect height="30" id="rect3510" style="stroke:#aaa;stroke-linecap:round;stroke-width:0.5;fill:#fff" width="30" x="270" y="60"/>
    <rect height="30" id="rect3512" style="stroke:#aaa;stroke-linecap:round;stroke-width:0.5;fill:#fff" width="30" x="300" y="60"/>
    <rect height="30" id="rect3514" style="stroke:#aaa;stroke-linecap:round;stroke-width:0.5;fill:#fff" width="30" x="330" y="60"/>
    <rect height="30" id="rect3516" style="stroke:#aaa;stroke-linecap:round;stroke-width:0.5;fill:#fff" width="30" x="360" y="60"/>
    <rect height="30" id="rect3518" style="stroke:#aaa;stroke-linecap:round;stroke-width:0.5;fill:#fff" width="30" x="390" y="60"/>
    <rect height="30" id="rect3520" style="stroke:#aaa;stroke-linecap:round;stroke-width:0.5;fill:#fff" width="30" x="420" y="60"/>
    <rect height="30" id="rect3522" style="stroke:#aaa;stroke-linecap:round;stroke-width:0.5;fill:#fff" width="30" x="-7.6293945e-006" y="30"/>
    <rect height="30" id="rect3524" style="stroke:#aaa;stroke-linecap:round;stroke-width:0.5;fill:#fff" width="30" x="30" y="30"/>
    <rect height="30" id="rect3526" style="stroke:#aaa;stroke-linecap:round;stroke-width:0.5;fill:#fff" width="30" x="59.999992" y="30"/>
    <rect height="30" id="rect3528" style="stroke:#aaa;stroke-linecap:round;stroke-width:0.5;fill:#fff" width="30" x="89.999985" y="30"/>
    <rect height="30" id="rect3530" style="stroke:#aaa;stroke-linecap:round;stroke-width:0.5;fill:#fff" width="30" x="119.99999" y="30"/>
    <rect height="30" id="rect3532" style="stroke:#aaa;stroke-linecap:round;stroke-width:0.5;fill:#fff" width="30" x="149.99998" y="30"/>
    <rect height="30" id="rect3534" style="stroke:#aaa;stroke-linecap:round;stroke-width:0.5;fill:#fff" width="30" x="179.99998" y="30"/>
    <rect height="30" id="rect3536" style="stroke:#aaa;stroke-linecap:round;stroke-width:0.5;fill:#cccccc" width="30" x="210" y="30"/>
    <rect height="30" id="rect3538" style="stroke:#aaa;stroke-linecap:round;stroke-width:0.5;fill:#fff" width="30" x="240" y="30"/>
    <rect height="30" id="rect3540" style="stroke:#aaa;stroke-linecap:round;stroke-width:0.5;fill:#fff" width="30" x="270" y="30"/>
    <rect height="30" id="rect3542" style="stroke:#aaa;stroke-linecap:round;stroke-width:0.5;fill:#fff" width="30" x="300" y="30"/>
    <rect height="30" id="rect3544" style="stroke:#aaa;stroke-linecap:round;stroke-width:0.5;fill:#fff" width="30" x="330" y="30"/>
    <rect height="30" id="rect3546" style="stroke:#aaa;stroke-linecap:round;stroke-width:0.5;fill:#fff" width="30" x="360" y="30"/>
    <rect height="30" id="rect3548" style="stroke:#aaa;stroke-linecap:round;stroke-width:0.5;fill:#fff" width="30" x="390" y="30"/>
    <rect height="30" id="rect3550" style="stroke:#aaa;stroke-linecap:round;stroke-width:0.5;fill:#fff" width="30" x="420" y="30"/>
    <rect height="30" id="rect3552" style="stroke:#aaa;stroke-linecap:round;stroke-width:0.5;fill:#fff" width="30" x="-7.6293945e-006" y="-4.7683716e-007"/>
    <rect height="30" id="rect3554" style="stroke:#aaa;stroke-linecap:round;stroke-width:0.5;fill:#fff" width="30" x="29.999992" y="-4.7683716e-007"/>
    <rect height="30" id="rect3556" style="stroke:#aaa;stroke-linecap:round;stroke-width:0.5;fill:#fff" width="30" x="59.999992" y="-4.7683716e-007"/>
    <rect height="30" id="rect3558" style="stroke:#aaa;stroke-linecap:round;stroke-width:0.5;fill:#fff" width="30" x="89.999985" y="-4.7683716e-007"/>
    <rect height="30" id="rect3560" style="stroke:#aaa;stroke-linecap:round;stroke-width:0.5;fill:#fff" width="30" x="119.99999" y="-4.7683716e-007"/>
    <rect height="30" id="rect3562" style="stroke:#aaa;stroke-linecap:round;stroke-width:0.5;fill:#fff" width="30" x="149.99998" y="-4.7683716e-007"/>
    <rect height="30" id="rect3564" style="stroke:#aaa;stroke-linecap:round;stroke-width:0.5;fill:#fff" width="30" x="179.99998" y="-4.7683716e-007"/>
    <rect height="30" id="rect3566" style="stroke:#aaa;stroke-linecap:round;stroke-width:0.5;fill:#fff" width="30" x="210" y="-4.7683716e-007"/>
    <rect height="30" id="rect3568" style="stroke:#aaa;stroke-linecap:round;stroke-width:0.5;fill:#fff" width="30" x="240" y="-4.7683716e-007"/>
    <rect height="30" id="rect3570" style="stroke:#aaa;stroke-linecap:round;stroke-width:0.5;fill:#fff" width="30" x="270" y="-4.7683716e-007"/>
    <rect height="30" id="rect3572" style="stroke:#aaa;stroke-linecap:round;stroke-width:0.5;fill:#fff" width="30" x="300" y="-4.7683716e-007"/>
    <rect height="30" id="rect3574" style="stroke:#aaa;stroke-linecap:round;stroke-width:0.5;fill:#fff" width="30" x="330" y="-4.7683716e-007"/>
    <rect height="30" id="rect3576" style="stroke:#aaa;stroke-linecap:round;stroke-width:0.5;fill:#fff" width="30" x="360" y="-4.7683716e-007"/>
    <rect height="30" id="rect3578" style="stroke:#aaa;stroke-linecap:round;stroke-width:0.5;fill:#fff" width="30" x="390" y="-4.7683716e-007"/>
    <rect height="30" id="rect3580" style="stroke:#aaa;stroke-linecap:round;stroke-width:0.5;fill:#fff" width="30" x="420" y="-4.7683716e-007"/>
    <path d="M 375,405 L 75,255 L 225,45 L 375,405 z " id="path4581" sodipodi:nodetypes="cccc" style="fill-rule:evenodd;stroke:#ff0000;stroke-width:4;fill:none"/>
  </g>
</svg>
