<svg xmlns="http://www.w3.org/2000/svg" version="1.1" viewBox="0 0 248 142">
    <title>
        LXS - Luke Xavier Symington Initials
    </title>
    <g fill="#EC7E09">
        <path d="m79.285 2.9623c3.311 1.4303 3.792 5.7914 1.489 8.5287-8.098 9.625-14.576 20.516-21.104 31.253-9.59 15.773-19.108 31.91-28.092 48.027-6.509 11.649-19.56 32.939-18.169 34.349 1.729 1.77 7.571-0.7 11.29-2.21 14.887-6.05 28.717-14.36 42.785-22.11 4.393-2.417 8.842-5.311 13.859-6.084 3.414-0.526 5.077 4.486 2.588 6.824-5.79 5.45-12.672 9.4-19.362 13.6-7.149 4.49-14.73 8.33-22.382 11.99-6.486 3.11-13.097 6.17-19.989 8.5-4.278 1.45-8.64 1.74-13.049 1.62-2.9239-0.1-6.6616-0.36-7.8976-3.47-1.9174-4.82 0.4646-10.11 2.5248-14.54 7.262-15.63 16.736-30.115 25.025-45.217 8.037-14.643 16.312-29.18 25.249-43.29 5.834-9.212 11.663-18.55 18.907-26.703 1.556-1.7516 4.159-2.0051 6.328-1.0681z"/>
        <g transform="translate(-4.8319,-5.9896)">
            <path d="m127.64 18.342c12.94 12.142 24.32 25.686 36.02 39.015 11.15 12.706 22.78 25.518 30.1 40.853 1.11 2.32 3.27 6.15 0.17 7.88-3.04 1.7-5.82-1.91-7.76-3.87-8.77-8.86-15.76-19.308-23.85-28.816-8.96-10.538-18.51-20.54-27.21-31.267-6.15-7.577-16.32-21.527-19.12-22.166-5.85-1.333-6.19-8.895 0.42-8.85 4.86 0.03 8.46 4.571 11.23 7.221z"/>
            <path d="m199.83 6.9401c2.81-0.076 7.03 0.2299 7.28 3.8939 0.24 3.657-3.88 3.77-6.71 4.39-6.62 1.449-11.68 6.793-17.01 10.857-9.13 6.958-17.39 14.984-25.44 23.165-9.69 9.859-18.91 20.167-27.67 30.854-12.91 15.74-25.39 31.83-37.742 48.01-4.121 5.4-7.98 10.98-11.262 16.9-1.947 3.51-7.72 2.22-8.318-1.83-0.755-5.11 1.543-9.78 4.338-13.76 6.936-9.89 14.401-19.46 21.873-28.92 11.911-15.068 23.921-29.984 36.841-44.166 6.25-6.854 12.75-13.531 19.51-19.894 6.73-6.338 13.62-12.489 21.14-17.893 5.82-4.181 11.82-8.486 18.66-10.732 1.45-0.4761 2.98-0.8335 4.51-0.8747z"/>
        </g>
        <path d="m211.5 12.07c7.37 0.05 13.5 0.999 19.68 4.282 3.5 1.86 7.91 6.173 8.28 10.223s-1.66 6.543-3.63 7.807-3.3-0.05-3.9-0.868c-1.35-1.568 0-3.532-1.93-5.401-6.14-5.239-15.78-5.649-22.33-4.498s-11.97 6.167-12.71 10.987 0 6.927 1.56 9.861c4.3 8.031 12.03 12.007 20.1 18.519 8.22 6.643 17.3 12.579 23.92 20.821 2.31 2.88 4.15 6.223 5.3 9.731 1.21 3.682 1.75 7.646 1.59 11.516-0.14 3.4-0.5 7.04-2.24 9.97-2.43 4.11-6.73 6.9-10.75 9.47-4.66 2.98-9.93 4.99-15.19 6.72-6.73 2.21-13.75 3.57-20.76 4.62-7.2 1.08-14.49 1.59-21.77 1.72-5.88 0.1-11.85 0.28-17.64-0.78-4.16-0.76-8.39-1.85-12.04-3.97-2.74-1.59-5.36-3.69-7.06-6.37-1.77-2.78-2.85-6.17-2.88-9.47 0-3.61 1.29-7.21 2.96-10.41 2.18-4.19 5.55-8.071 8.95-10.972s5.52-4.888 8.25-5.242 4.32 0.676 2.23 4.627-8.6 11.357-8.78 18.047c-0.1 2.44 1.01 5.12 2.83 6.74 3.2 2.85 8.11 2.97 12.35 3.56 9.34 1.29 18.88 0.62 28.28-0.15 6.4-0.52 12.79-1.5 19.03-3.02 4.51-1.1 9.12-2.21 13.23-4.38 3.15-1.66 6.63-3.53 8.51-6.48s1.97-6.38 1.1-10.414c-0.87-4.042-1.48-5.37-7.71-12.033s-23.04-19.719-30.3-26.016-9-8-11.84-13.18c-1.49-2.725-2.47-5.876-2.49-8.983 0-5.016 0.8-10.319 3.8-14.562 6.45-8.185 15.05-12.08 24-12.022z"/>
    </g>
</svg>
