<svg version="1.1" viewBox="0 0 919.28 480.55" xmlns="http://www.w3.org/2000/svg">
  <g stroke-width=".9921">
    <path d="m336.52 8.6859c-8.43 1.9921-12.59 11.071-19 16.282-25.54 27.826-46.9 59.194-66 91.732-7.41 13.3-16.25 25.63-26.92 36.54-9.78 10.35-19.71 20.96-31.76 28.66-3.94-1.36 0.85-8.83 1.03-12.53 2.01-6.37-7.08-10.61-10.51-4.89-8.26 8.84-16.15 18.73-26.75 24.81 2.03-11.51 10.51-20.61 15.01-31 1.51-6.23-8.39-7.64-9.54-1.61-7.51 10.77-16.28 22.46-16.08 36.19 0.14 9.1 12.53 8.71 18.08 4.8 6.13-3.48 11.06-8.57 16.08-13.45-0.1 9.68 13.08 10.91 19.41 6.68 9.41-5.57 17.62-13.75 25.51-20.6-1.67 5.77 3.44 11.87 9.37 9.14 8.96-6.91 15.94-16.26 22.78-25.25-1.2 7.43 0 15.87 7.01 20.08 11.25 7.66 25.99 6.27 38.83 4.72 10.56-2.79 20.82-6.9 30.08-12.73 10.95 10.4 27.44 6.85 41.16 7.05 14.94-0.68 29.65-4.55 43.76-9.29 5.32-3.6 0-11.69-5.56-9.02-18.04 2.53-35.91 6.81-54.25 5.89-5.17 0-10.69 0-15.36-2.41 4.93-3.29 7.57-12.69 0.21-14.7-8.22-1.78-9.9 8.6-16.41 11.06-15.23 9.83-34.25 16.16-52.24 11.34-8.7-1.94-6.39-12.91-3.21-18.69 9.83-15.93 27.88-24.14 40.04-37.76 4.98-7.43-2.72-17.528-11.23-15.768-8.78-0.46-16.31 5.07-22.11 11.078 17.76-24.038 36.9-47.057 54.77-70.989 3.87-6.378 9.68-12.935 9.6-20.706-0.27-2.796-2.97-5.1001-5.8-4.6591zm-200.47 1.275c-8.2 2.7281-13.24 11.01-19.86 16.27-28.643 29.709-47.33 67.031-72.95 99.129-12.812 17.95-29.626 32.88-40.763 51.99-3.0069 6.65-4.5578 16.37 3.0351 20.6 13.05 7.85 29.056 6.52 43.665 6.27 23.658-4.3 47.236-11.78 67.513-24.89 4.42-3.18 10.41-7.61 9.91-13.55-4.01-5.65-10.95 1.06-15.47 3-20.834 11.59-43.737 20.54-67.488 23.28-10.493-0.27-22.084 1.42-31.45-4.23 2.185-11.31 11.589-19.57 18.314-28.49 24.951-29.23 46.169-61.348 67.558-93.272 11.916-18.024 27.126-33.628 42.536-48.497 2.11-3.71-1.31-6.579-4.55-7.6101zm163.63 95.539c0.4 1.97-7.46 5.99-9.91 8.84-3.87 3.13-7.84 6.17-11.61 9.42 5.38-7.37 11.46-17.53 21.52-18.26zm-34.58 16.83c-7.13 10.55-14.05 21.28-21.94 31.28 5.34-11.63 14.89-20.69 21.94-31.28z"/>
    <path d="m556.91 0.10995c-17.06-0.517-33.49 8.403-46.13 19.391-5 3.748-9.46 13.099-2.95 17.349 4.97 1.914 6.24-3.512 7.5-6.708 11.79-11.677 28.15-20.495 45.18-19.132 9.87 0.418 10.71 12.191 10.45 19.791 0.23 15.582-5.97 30.462-11.39 44.841-15 37.998-43.25 68.588-61.32 104.88-2.11 5.58-5.13 14.9 1.49 18.49 5.36 1.8 9.66-4.05 8.21-8.89 5.86-17.34 17.55-32.06 27.06-47.55 5.41-8.36 10.73-16.74 15.82-25.29-4.46 11.09-4.64 23.82-2.35 35.38 3.17 7.29 7.02 14.19 13.78 18.73 4.98 4.82 12.44 5.76 18.77 8.01 10.27 0.9 20.56 0 30.32-3.42 5.51-3.72-0.24-10.99-5.65-8.77-13.74 1.12-29.95 1.24-39.72-10.06-7.66-8.93-6.47-21.82-4.22-32.58 8.84-26.628 26.2-49.638 45.47-69.647 13.97-13.262 29.32-26.161 47.37-33.279 5.92-1.47 11.86-0.06 17.42 0.952 5.54-1.181 4.71-9.385-0.67-10.5-11.72-5.4611-25.33-1.254-35.52 5.644-27.64 16.492-50.45 40.253-68.07 67.042 6.39-15.04 12.23-30.731 13.98-47.046 0-12.239 0.98-27.985-11.29-35.02-4.27-2.227-8.75-3.033-13.54-2.606zm249.71 80.412c-6.95 1.05-14.09 4.27-18.69 9.57-3.84 5.44 3.07 12.158 7.93 6.97 4.7-4.19 12.36-6.25 14.56-12.54-0.1-2.13-1.75-3.72-3.8-4zm-118.88 28.948c-10.45 1.03-17.28 10.89-23.84 18.16-6.72 9.72-15.9 21.26-12.55 33.72 4.71 5.95 14.13 2.81 18.96-1.61 7.75-5.8 14.71-12.63 21.3-19.73-1.3 8.07 8.01 11 14.45 9.75 9.25-2.41 17.88-7.4 26.27-11.91-4.35 10.5-10.45 21.96-8.06 33.62 3.75 6.16 12.93 2.42 16.56-2.2 11.23-10.43 13.6-29.3 29.28-34.88 6.94-4.75 0.45 3.51-0.5 6.52-3.15 7.58-6.49 16.73-3.6 24.78 4.59 4.99 12.8 3.46 18.82 2.63 7.31-1.59 13.79-5.36 19.58-10.05-1.69 5.75 2.91 11.41 8.95 10.48 10.1-1.04 17.37-9.61 26.03-14.04 5.71-4.94 0.65 2.71 0.89 5.83-1.11 6.95 8.1 7.31 11.94 3.75 12.93-10.01 25.67-20.64 40.73-27.45 8.2-5.53 19.08-6.82 25.79-14.37 2.67-6.03-5.2-9.33-9.64-6.08-19.98 7.48-38.64 18.73-54.52 33.08 2.86-8.03 8.29-14.98 11.19-22.75 0-6.46-9.13-6.25-10.31-0.51-7.77 15.46-25.34 21.56-38.35 31.68-7.01 5.44-2.53-5.44-1.51-8.75 6.5-6.91 14.68-13.88 17.03-23.35-0.63-7-10.21-4.94-13.19-0.73-5.96 5.75-8.33 14.13-12.44 21.04-9.25 7.68-20.52 15.12-33.07 14.06 0-10.75 6.97-19.89 11.21-29.05 0.25-5.2-5.07-8.24-9.79-7.19-12.59 1.89-23.46 10.68-29.76 21.67-3.52 4.96-7.56 12.7-11.2 15.75 2.61-10.38 7.35-20.17 11.96-29.73 4.53-2.61 3.88-12.59-2.84-11.28-3.23 1.78-5.98 4.02-9.66 5.38-9.25 6-19.16 11.44-29.45 15.22-6.47 1.64-2.58-7.66-1.41-10.97 2.12-3.22 4.57-9.23-1.03-10.48-6.16 0.23-9.83 7.23-14.37 10.78-8.15 8.2-16.26 16.66-25.87 23.15 5.06-12.96 13.81-25.47 25.71-32.81 4.92 1.6 10.57-4.32 6.41-8.72-1.79-1.42-4-2.35-6.1-2.41z"/>
    <path d="m648.58 285.83c-7.15 1.45-12.3 9.06-17.28 14.17l-7.26 0.58h-0.1l-6.87 0.64-4.04 0.16-0.44 0.11-1.18 0.19-1.28 0.42-0.23 0.12h-0.2l-0.39 0.27-0.76 0.39-0.35 0.36-0.28 0.19-0.2 0.28-0.37 0.38-0.39 0.76-0.25 0.36v0.18l-0.11 0.24-0.29 1.77 0.44 2.18 1.21 1.79 1.78 1.2 2.19 0.44h0.56l1.17-0.12 3.94-0.11 4.14-0.1c-8.61 13.65-14.48 29.12-23.02 42.71-0.74-0.67-1.72-1.14-3.02-1.26l-0.95-0.17-0.82 0.17c-1.11 0.49-2.1 1.12-2.99 1.85-0.22 0-0.44 0-0.67 0.1-2.46-0.38-13.14 5.45-7.59 2.31 6.03-3.61 14.15-14.67 6.46-20.33-10.06-0.12-16.22 9.24-22.66 15.63-7.81-5.43-18-0.35-24.08 5.51-2.53-4.11-11.06-4.03-15.73-0.59 2.33-5.34 2.39-17.62-6.42-15.38-13.95 10.67-22.85 28.32-40.1 34.93 1.57-4.67 5.45-10.03 7.78-15.06 3.31-5.29 4.74-17.92-3.85-18.5-11.09 5.01-18.22 16.52-28.43 23.3-5.64 5.25 0.5-6.61-1.66-10.08-4.73-8.18-14.09 2.12-18.44 5.81-6.37 6.89-1.3-3.47-4.55-6.69-7.28-6.44-14.08 5.42-18.89 9.71 2.67-4.6 4.49-14.49-2.92-15.46-9.03 3.56-17.03 10.11-25.62 14.89-7.75 5.98-9.3 6.3-2.64-2.57 4.2-4.05 4.71-15.64-3.81-13.18-13.23 6.41-22.84 18.7-35.35 26.5-3.5 1.43-16.8 14.13-13.97 4.66 3.66-11.9 15.64-18.75 21.57-28.5 7.24-5.9-4.46-7.88-7.03-2.19-8.58 6.13-17.44 13.7-22.28 23.71-3.78 6.2-6.77 20.06 4.03 20.53 14.27 0.51 24.5-11.93 35.5-19.35 8.22-8.06-2.89 5.98-4.63 9.56-20.71 16.66-32.45 41.44-44.02 64.79-4.6 5.13 1.37 15.51 7.35 10.01 13.47-21.6 27.86-42.9 41.49-64.52 12.6-10.1 26.33-19.69 40.26-28.09-2.23 5.38-5.69 10.33-6.59 16.13 0.45 8.5 11.45 5.27 14.97 0.54 3.9-2.16 7.08-10.37 8.7-3.11 9.06 4.44 17.43-5.71 24.29-10.46 0.25 1.43-1.69 8.56 2.51 10.16 13.68 2.8 22.69-11.61 32.07-19.09-2.83 6.5-11.87 17.32-6.72 25.87 10.57 6.03 22.32-3.69 30.93-9.63 2.59-1.12 9.98-11.93 7.46-4.59-0.93 8.45 10.82 8.61 14.89 3.03 4.02-1.01 7.99-11.2 10.33-5.25 8.02 5.46 15.29-3.48 21.37-7.7 8.65-4.86 2.77 2.91 1.3 7.38-2.55 9.88 10.94 10.22 16.32 5.7 1.68-0.4 7.29-4.37 10.18-5.99-1.13 2.26-2.37 4.41-3.94 6.2-15.69 24.26-30.96 49.16-41.71 76.05-1.6 8.38-10.81 17.82-5.31 26.16 7.44 5.89 12.08-4.99 16.89-9.02 15.69-19.19 24.33-42.94 31.58-66.24 3.17-10.2 5.82-12.75 9.63-18.6 3.74-5.72 10.88-12.92 12.87-15.94 12.04-18.24 19.87-38.96 32.79-56.59h3.14c-5.56 13.44-11.58 26.7-19.09 39.17-4.91 10.25-16.77 22.34-9.71 34.1 8.43 4.7 19.42 3.03 28.45 0.83 13.69 1.95 28.65-4.21 37.15-15.25 1.89-5.07 4.5-8.25 10.02-9.43 2.24-0.95 14.09-6.1 11.84-3.03-5.29 3.99-14.58 13.45-6.67 19.27 11.09 2.91 20.71-6.98 30.14-11.57 2.26 5.51 7.5 9.56 13.32 10.69 7.67 1.47 21.56 0.36 21.2-9.86-5.49-6.78-16.77 2.11-22.94-4.53-1.36-7.03-8.59-10.29-14.83-6.9-3.82 2.41 2.45-7.2-2.38-8.92-11.73-3.98-25.11 0.1-36.08 5.05-4.93 3.87-15.53-1.82-15.75 7.67-10.47-5.47-21.19 4.68-26.06 13.38-2.57 4.45-17.1 5.87-17.29 1.8 11.49-20.19 22.04-40.82 30.06-62.63l11.48-0.14 15.02-0.12h0.1l14.88-0.28h0.59l13.42-1.45 0.64-0.2 0.81-0.14 10.03-3.58 1.73-1.31 0.68-2.1-0.25-1.32-0.68-1.1-1.01-0.79-1.25-0.39-10.63-1.27h-0.94l-13.49 0.27-14.86 0.16-15.02 0.16h-0.14l-6.91 0.21c1.18-5.71 1.25-12.19-4.99-13.05zm-78.37 79.79c0.47-0.11-0.42 0.37 0 0z"/>
  </g>
  <g transform="translate(-61.163,-14.014)">
    <path d="m324.29 233.58c14.44-2.05 29.81 6.12 33.01 20.97 2.7 10.35 3.48 22.44-0.4 32.28-5.29 4.01-8.18-3.38-7.62-7.7-0.82-12.26-0.19-31.04-15.37-34.2-21.74-3.08-43.38 9.96-56.02 26.94-10.86 16.01-10.05 39.14 3.55 53.39 15.15 19.6 40.88 33.01 46.38 58.77 4.95 18.64-8.95 34.69-22.58 45.35-26.59 19.41-57.74 33.78-90.43 38.71-14.58 2.68-32.85 1.35-41.24-12.7-9.29-11.4-7.66-27.65-7.21-41.47 5.07-25.27 15.95-49.39 30.62-70.55 5.89 3.56-3.23 15.44-3.42 22.2-7.98 24.62-19.39 50.8-11.07 76.89 4.74 13.97 21.44 14.56 33.77 12.5 29.88-4.46 58.71-17.14 82.92-35.1 11.34-8.63 22.69-22.32 16.74-37.37-12.63-28.24-46.79-41.46-55.2-72.37-5.64-23.29 5.39-48.76 25.51-61.59 11.01-7.77 24.99-14.74 38.06-14.95z" stroke-width=".9921"/>
  </g>
  <path d="m505.94 312.85 1.53 1.03 1.03 1.53 0.38 1.87-0.38 1.88v0.2l-0.34 0.46-0.63 0.94-0.13 0.1-0.1 0.11-1.76 1.56-0.91 0.96-0.78 2.39-0.3 0.56-0.49 0.95-2.03 2.7-1.93 1.61-2.51 0.6-2.17-0.44-1.77-1.19-1.2-1.77-0.43-2.17 0.25-1.66 0.69-1.44 1.58-2.36 1.25-2.95 0.1-0.11v-0.18l1.59-1.9 2.23-1.68 1.11-0.6 0.14-0.11 2.37-0.94 1.8-0.35z" stroke-width=".9921" fill-mode="evenodd"/>
</svg>
